<svg width="356.56" height="369.427" viewBox="0 0 267.42 277.07" class="displayed_equation" xmlns="http://www.w3.org/2000/svg">
  <path d="M 355.78125 291.090625 L 2172.890625 291.090625" transform="matrix(.1 0 0 -.1 0 277.07)" fill="none" stroke-width="7.97" stroke="#000" stroke-miterlimit="10" />
  <path d="M 221.152344 247.960938 L 215.683594 245.894531 L 217.488281 247.960938 L 215.683594 250.023438" />
  <path d="M 2211.523438 291.090625 L 2156.835938 311.754687 L 2174.882813 291.090625 L 2156.835938 270.465625 Z M 2211.523438 291.090625" transform="matrix(.1 0 0 -.1 0 277.07)" fill="none" stroke-width="7.97" stroke="#000" stroke-miterlimit="10" />
  <path d="M229.234375 249.476563L229.179688 249.476563 229.101563 248.171875 228.765625 244.992188C228.753906 244.914063 228.730469 244.667969 228.730469 244.589844 228.699219 244.085938 229.054688 243.875 229.621094 243.875L229.65625 243.539063 226.925781 243.539063 226.902344 243.875C227.492188 243.875 227.683594 244.144531 227.773438 244.890625L228.398438 250.925781 228.765625 250.925781 232.859375 245.070313C233.539063 244.054688 233.761719 243.875 234.367188 243.875L234.386719 243.539063 231.976563 243.539063 231.957031 243.875C232.457031 243.875 232.625 243.941406 232.625 244.164063 232.625 244.34375 232.480469 244.601563 232.28125 244.902344L229.234375 249.476563M236.578125 247.914063C236.578125 250.367188 237.753906 252.117188 239.546875 253.046875L239.726563 252.734375C238.097656 251.664063 237.496094 250.15625 237.496094 247.914063 237.496094 245.695313 238.097656 244.199219 239.726563 243.117188L239.546875 242.828125C237.753906 243.742188 236.578125 245.480469 236.578125 247.914063M244.640625 248.347656L244.25 249.464844 244.195313 249.464844 243.757813 248.292969 242.410156 244.980469C242.273438 244.65625 242.21875 244.445313 242.21875 244.300781 242.21875 243.886719 242.6875 243.875 242.976563 243.875L242.976563 243.539063 239.988281 243.539063 239.988281 243.875C240.589844 243.875 240.835938 244.144531 241.160156 244.890625L243.714844 250.925781 244.160156 250.925781 246.460938 245.324219C246.996094 244.066406 247.140625 243.875 247.765625 243.875L247.765625 243.539063 245.421875 243.539063 245.421875 243.875C245.945313 243.875 246.167969 243.953125 246.167969 244.253906 246.167969 244.453125 246.113281 244.632813 246.046875 244.800781L244.640625 248.347656M251.191406 247.914063C251.191406 245.480469 250.019531 243.742188 248.226563 242.828125L248.046875 243.117188C249.675781 244.199219 250.277344 245.695313 250.277344 247.914063 250.277344 250.15625 249.675781 251.664063 248.046875 252.734375L248.226563 253.046875C250.019531 252.117188 251.191406 250.367188 251.191406 247.914063" />
  <path d="M 355.78125 291.090625 L 355.78125 2419.371875" transform="matrix(.1 0 0 -.1 0 277.07)" fill="none" stroke-width="7.97" stroke="#000" stroke-miterlimit="10" />
  <path d="M 35.578125 31.265625 L 33.515625 36.734375 L 35.578125 34.929688 L 37.640625 36.734375" />
  <path d="M 355.78125 2458.04375 L 335.15625 2403.35625 L 355.78125 2421.403125 L 376.40625 2403.35625 Z M 355.78125 2458.04375" transform="matrix(.1 0 0 -.1 0 277.07)" fill="none" stroke-width="7.97" stroke="#000" stroke-miterlimit="10" />
  <path d="M25.660156 22.308594C25.460938 23.289063 25.324219 23.4375 24.421875 23.4375L24.355469 23.769531 27.398438 23.769531 27.46875 23.4375C26.765625 23.4375 26.574219 23.355469 26.574219 22.945313 26.574219 22.789063 26.609375 22.585938 26.652344 22.351563L27.570313 17.910156C27.734375 17.042969 27.847656 16.773438 28.839844 16.773438L28.90625 16.441406 25.816406 16.441406 25.75 16.773438C26.765625 16.773438 26.765625 17.042969 26.574219 17.910156L25.660156 22.308594M31.078125 20.8125C31.078125 23.265625 32.25 25.019531 34.046875 25.945313L34.226563 25.632813C32.597656 24.5625 31.996094 23.054688 31.996094 20.8125 31.996094 18.59375 32.597656 17.097656 34.226563 16.015625L34.046875 15.726563C32.25 16.640625 31.078125 18.382813 31.078125 20.8125M42.566406 23.769531L42.566406 23.4375C41.960938 23.4375 41.742188 23.179688 41.417969 22.441406L38.773438 16.382813 38.316406 16.382813 35.949219 21.984375C35.414063 23.257813 35.257813 23.4375 34.632813 23.4375L34.632813 23.769531 36.976563 23.769531 36.976563 23.4375C36.453125 23.4375 36.226563 23.367188 36.226563 23.054688 36.226563 22.855469 36.285156 22.6875 36.351563 22.507813L36.851563 21.324219 39.710938 21.324219 40.144531 22.332031C40.289063 22.664063 40.335938 22.867188 40.335938 23.023438 40.335938 23.414063 39.898438 23.4375 39.5625 23.4375L39.5625 23.769531zM39.542969 20.882813L37.019531 20.882813 38.28125 17.757813 38.316406 17.757813 39.542969 20.882813M46.09375 20.8125C46.09375 18.382813 44.921875 16.640625 43.125 15.726563L42.945313 16.015625C44.574219 17.097656 45.175781 18.59375 45.175781 20.8125 45.175781 23.054688 44.574219 24.5625 42.945313 25.632813L43.125 25.945313C44.921875 25.019531 46.09375 23.265625 46.09375 20.8125" />
  <path d="M 337.226563 291.090625 L 374.335938 291.090625" transform="matrix(.1 0 0 -.1 0 277.07)" fill="none" stroke-width="7.97" stroke="#000" stroke-miterlimit="10" />
  <path d="M 29.222656 247.933594 C 29.222656 245.636719 28.21875 244.308594 26.777344 244.308594 C 25.160156 244.308594 24.300781 245.78125 24.300781 247.898438 C 24.300781 249.875 24.960938 251.59375 26.757813 251.59375 C 28.507813 251.59375 29.222656 249.84375 29.222656 247.933594 Z M 28.140625 248 C 28.140625 250.140625 27.636719 251.191406 26.757813 251.191406 C 25.863281 251.191406 25.371094 250.121094 25.371094 247.957031 C 25.371094 245.746094 25.863281 244.6875 26.742188 244.6875 C 27.660156 244.6875 28.140625 245.734375 28.140625 248" />
  <path d="M 337.226563 602.301562 L 374.335938 602.301562" transform="matrix(.1 0 0 -.1 0 277.07)" fill="none" stroke-width="7.97" stroke="#000" stroke-miterlimit="10" />
  <path d="M20.921875 216.835938C20.921875 214.535156 19.917969 213.207031 18.476563 213.207031 16.859375 213.207031 16 214.679688 16 216.800781 16 218.773438 16.660156 220.492188 18.457031 220.492188 20.207031 220.492188 20.921875 218.742188 20.921875 216.835938zM19.839844 216.898438C19.839844 219.042969 19.335938 220.089844 18.457031 220.089844 17.5625 220.089844 17.070313 219.019531 17.070313 216.855469 17.070313 214.648438 17.5625 213.585938 18.445313 213.585938 19.359375 213.585938 19.839844 214.636719 19.839844 216.898438M23.328125 219.824219C23.328125 219.457031 23.097656 219.132813 22.671875 219.132813 22.257813 219.132813 22.015625 219.445313 22.015625 219.8125 22.015625 220.191406 22.226563 220.460938 22.660156 220.460938 23.097656 220.460938 23.328125 220.167969 23.328125 219.824219M29.367188 218.609375L29.367188 217.835938 28.226563 217.835938 28.226563 213.175781 27.546875 213.175781 24.144531 217.90625 24.144531 218.609375 27.234375 218.609375 27.234375 220.371094 28.226563 220.371094 28.226563 218.609375zM27.234375 217.835938L24.757813 217.835938 24.757813 217.792969 27.191406 214.390625 27.234375 214.390625 27.234375 217.835938" />
  <path d="M 337.226563 913.473437 L 374.335938 913.473437" transform="matrix(.1 0 0 -.1 0 277.07)" fill="none" stroke-width="7.97" stroke="#000" stroke-miterlimit="10" />
  <path d="M20.921875 185.734375C20.921875 183.4375 19.917969 182.109375 18.476563 182.109375 16.859375 182.109375 16 183.582031 16 185.699219 16 187.675781 16.660156 189.394531 18.457031 189.394531 20.207031 189.394531 20.921875 187.640625 20.921875 185.734375zM19.839844 185.800781C19.839844 187.941406 19.335938 188.992188 18.457031 188.992188 17.5625 188.992188 17.070313 187.921875 17.070313 185.757813 17.070313 183.546875 17.5625 182.488281 18.445313 182.488281 19.359375 182.488281 19.839844 183.535156 19.839844 185.800781M23.328125 188.722656C23.328125 188.355469 23.097656 188.03125 22.671875 188.03125 22.257813 188.03125 22.015625 188.34375 22.015625 188.710938 22.015625 189.09375 22.226563 189.359375 22.660156 189.359375 23.097656 189.359375 23.328125 189.070313 23.328125 188.722656M29 187.597656C29 186.703125 28.597656 186.167969 27.289063 185.375L27.289063 185.34375C28.328125 184.773438 28.730469 184.40625 28.730469 183.59375 28.730469 182.710938 27.882813 182.050781 26.777344 182.050781 25.550781 182.050781 24.65625 182.6875 24.65625 183.703125 24.65625 184.460938 24.902344 184.917969 26.042969 185.710938L26.042969 185.746094C25.003906 186.4375 24.511719 186.792969 24.511719 187.6875 24.511719 188.824219 25.449219 189.40625 26.742188 189.40625 28.070313 189.40625 29 188.769531 29 187.597656zM27.90625 183.570313C27.90625 184.28125 27.679688 184.71875 26.945313 185.164063 25.953125 184.5625 25.527344 184.160156 25.527344 183.503906 25.527344 182.820313 25.996094 182.421875 26.757813 182.421875 27.46875 182.421875 27.90625 182.832031 27.90625 183.570313zM26.375 185.921875C27.726563 186.792969 28.0625 187.207031 28.0625 187.921875 28.0625 188.679688 27.480469 189.058594 26.789063 189.058594 25.941406 189.058594 25.382813 188.601563 25.382813 187.597656 25.382813 186.828125 25.742188 186.4375 26.375 185.921875" />
  <path d="M 337.226563 1224.645312 L 374.335938 1224.645312" transform="matrix(.1 0 0 -.1 0 277.07)" fill="none" stroke-width="7.97" stroke="#000" stroke-miterlimit="10" />
  <path d="M20.453125 158.171875L20.453125 157.855469C19.425781 157.855469 19.015625 157.65625 19.015625 157.109375L19.015625 151.042969 18.691406 151.042969 16.523438 151.652344 16.523438 152.023438C16.871094 151.910156 17.441406 151.84375 17.664063 151.84375 17.941406 151.84375 18.03125 152 18.03125 152.390625L18.03125 157.109375C18.03125 157.667969 17.640625 157.855469 16.59375 157.855469L16.59375 158.171875 20.453125 158.171875M23.328125 157.621094C23.328125 157.257813 23.097656 156.929688 22.671875 156.929688 22.257813 156.929688 22.015625 157.242188 22.015625 157.613281 22.015625 157.992188 22.226563 158.257813 22.660156 158.257813 23.097656 158.257813 23.328125 157.96875 23.328125 157.621094M29.175781 156.386719L28.851563 156.386719C28.597656 157.054688 28.453125 157.289063 27.859375 157.289063L26.308594 157.289063 25.527344 157.320313 25.527344 157.265625 27 155.871094C28.183594 154.679688 28.820313 153.910156 28.820313 152.914063 28.820313 151.742188 27.9375 150.984375 26.679688 150.984375 25.59375 150.984375 24.835938 151.609375 24.492188 152.691406L24.757813 152.804688C25.171875 151.96875 25.664063 151.710938 26.386719 151.710938 27.246094 151.710938 27.78125 152.246094 27.78125 153.082031 27.78125 154.253906 27.222656 154.957031 26.121094 156.09375L24.421875 157.789063 24.421875 158.171875 28.820313 158.171875 29.175781 156.386719" />
  <path d="M 337.226563 1535.817187 L 374.335938 1535.817187" transform="matrix(.1 0 0 -.1 0 277.07)" fill="none" stroke-width="7.97" stroke="#000" stroke-miterlimit="10" />
  <path d="M20.453125 127.070313L20.453125 126.757813C19.425781 126.757813 19.015625 126.558594 19.015625 126.011719L19.015625 119.941406 18.691406 119.941406 16.523438 120.554688 16.523438 120.921875C16.871094 120.8125 17.441406 120.746094 17.664063 120.746094 17.941406 120.746094 18.03125 120.902344 18.03125 121.289063L18.03125 126.011719C18.03125 126.566406 17.640625 126.757813 16.59375 126.757813L16.59375 127.070313 20.453125 127.070313M23.328125 126.523438C23.328125 126.15625 23.097656 125.832031 22.671875 125.832031 22.257813 125.832031 22.015625 126.144531 22.015625 126.511719 22.015625 126.890625 22.226563 127.160156 22.660156 127.160156 23.097656 127.160156 23.328125 126.867188 23.328125 126.523438M28.628906 119.863281C26.230469 119.964844 24.5 121.515625 24.5 124.203125 24.5 125.84375 25.226563 127.203125 26.890625 127.203125 28.296875 127.203125 29.097656 126.324219 29.097656 124.804688 29.097656 123.34375 28.304688 122.460938 27.089844 122.460938 26.511719 122.460938 26.097656 122.707031 25.640625 123.152344L25.5625 123.144531C25.839844 121.515625 27.089844 120.421875 28.652344 120.1875zM28.128906 124.894531C28.128906 126.3125 27.679688 126.8125 26.933594 126.8125 25.964844 126.8125 25.507813 125.820313 25.507813 124.4375 25.507813 123.46875 26.109375 123.109375 26.757813 123.109375 27.679688 123.109375 28.128906 123.890625 28.128906 124.894531" />
  <path d="M 337.226563 1847.028125 L 374.335938 1847.028125" transform="matrix(.1 0 0 -.1 0 277.07)" fill="none" stroke-width="7.97" stroke="#000" stroke-miterlimit="10" />
  <path d="M 29.175781 94.1875 L 28.851563 94.1875 C 28.597656 94.855469 28.453125 95.089844 27.859375 95.089844 L 26.308594 95.089844 L 25.527344 95.121094 L 25.527344 95.066406 L 27 93.671875 C 28.183594 92.476563 28.820313 91.710938 28.820313 90.714844 C 28.820313 89.542969 27.9375 88.785156 26.679688 88.785156 C 25.59375 88.785156 24.835938 89.410156 24.492188 90.492188 L 24.757813 90.605469 C 25.171875 89.765625 25.664063 89.511719 26.386719 89.511719 C 27.246094 89.511719 27.78125 90.046875 27.78125 90.882813 C 27.78125 92.054688 27.222656 92.757813 26.121094 93.894531 L 24.421875 95.589844 L 24.421875 95.96875 L 28.820313 95.96875 L 29.175781 94.1875" />
  <path d="M 337.226563 2158.2 L 374.335938 2158.2" transform="matrix(.1 0 0 -.1 0 277.07)" fill="none" stroke-width="7.97" stroke="#000" stroke-miterlimit="10" />
  <path d="M20.875 63.085938L20.554688 63.085938C20.296875 63.753906 20.152344 63.988281 19.558594 63.988281L18.007813 63.988281 17.226563 64.023438 17.226563 63.96875 18.703125 62.570313C19.882813 61.378906 20.519531 60.609375 20.519531 59.613281 20.519531 58.441406 19.636719 57.6875 18.378906 57.6875 17.296875 57.6875 16.539063 58.3125 16.191406 59.390625L16.460938 59.503906C16.871094 58.667969 17.363281 58.410156 18.085938 58.410156 18.945313 58.410156 19.480469 58.945313 19.480469 59.78125 19.480469 60.953125 18.921875 61.65625 17.820313 62.796875L16.125 64.488281 16.125 64.871094 20.519531 64.871094 20.875 63.085938M23.328125 64.324219C23.328125 63.957031 23.097656 63.632813 22.671875 63.632813 22.257813 63.632813 22.015625 63.941406 22.015625 64.3125 22.015625 64.691406 22.226563 64.960938 22.660156 64.960938 23.097656 64.960938 23.328125 64.667969 23.328125 64.324219M29.367188 63.105469L29.367188 62.335938 28.226563 62.335938 28.226563 57.675781 27.546875 57.675781 24.144531 62.402344 24.144531 63.105469 27.234375 63.105469 27.234375 64.871094 28.226563 64.871094 28.226563 63.105469zM27.234375 62.335938L24.757813 62.335938 24.757813 62.292969 27.191406 58.890625 27.234375 58.890625 27.234375 62.335938" />
  <path d="M 355.78125 309.684375 L 355.78125 272.535937" transform="matrix(.1 0 0 -.1 0 277.07)" fill="none" stroke-width="7.97" stroke="#000" stroke-miterlimit="10" />
  <path d="M 38.023438 257.632813 C 38.023438 255.335938 37.015625 254.007813 35.578125 254.007813 C 33.960938 254.007813 33.101563 255.480469 33.101563 257.601563 C 33.101563 259.574219 33.757813 261.292969 35.554688 261.292969 C 37.308594 261.292969 38.023438 259.542969 38.023438 257.632813 Z M 36.9375 257.699219 C 36.9375 259.84375 36.4375 260.890625 35.554688 260.890625 C 34.664063 260.890625 34.171875 259.820313 34.171875 257.65625 C 34.171875 255.445313 34.664063 254.386719 35.542969 254.386719 C 36.460938 254.386719 36.9375 255.4375 36.9375 257.699219" />
  <path d="M 666.953125 309.684375 L 666.953125 272.535937" transform="matrix(.1 0 0 -.1 0 277.07)" fill="none" stroke-width="7.97" stroke="#000" stroke-miterlimit="10" />
  <path d="M 69.078125 259.386719 L 68.753906 259.386719 C 68.496094 260.054688 68.351563 260.289063 67.757813 260.289063 L 66.210938 260.289063 L 65.429688 260.320313 L 65.429688 260.265625 L 66.902344 258.871094 C 68.085938 257.679688 68.71875 256.910156 68.71875 255.914063 C 68.71875 254.742188 67.835938 253.984375 66.578125 253.984375 C 65.496094 253.984375 64.738281 254.609375 64.390625 255.691406 L 64.660156 255.804688 C 65.070313 254.96875 65.5625 254.710938 66.289063 254.710938 C 67.148438 254.710938 67.679688 255.246094 67.679688 256.082031 C 67.679688 257.253906 67.125 257.957031 66.019531 259.09375 L 64.324219 260.789063 L 64.324219 261.171875 L 68.71875 261.171875 L 69.078125 259.386719" />
  <path d="M 978.125 309.684375 L 978.125 272.535937" transform="matrix(.1 0 0 -.1 0 277.07)" fill="none" stroke-width="7.97" stroke="#000" stroke-miterlimit="10" />
  <path d="M 100.367188 259.40625 L 100.367188 258.636719 L 99.226563 258.636719 L 99.226563 253.976563 L 98.546875 253.976563 L 95.144531 258.703125 L 95.144531 259.40625 L 98.234375 259.40625 L 98.234375 261.171875 L 99.226563 261.171875 L 99.226563 259.40625 Z M 98.234375 258.636719 L 95.757813 258.636719 L 95.757813 258.59375 L 98.191406 255.191406 L 98.234375 255.191406 L 98.234375 258.636719" />
  <path d="M 1289.335938 309.684375 L 1289.335938 272.535937" transform="matrix(.1 0 0 -.1 0 277.07)" fill="none" stroke-width="7.97" stroke="#000" stroke-miterlimit="10" />
  <path d="M 130.828125 253.964844 C 128.429688 254.0625 126.703125 255.613281 126.703125 258.304688 C 126.703125 259.945313 127.425781 261.304688 129.089844 261.304688 C 130.496094 261.304688 131.296875 260.421875 131.296875 258.90625 C 131.296875 257.445313 130.507813 256.5625 129.289063 256.5625 C 128.710938 256.5625 128.296875 256.808594 127.839844 257.253906 L 127.761719 257.242188 C 128.039063 255.613281 129.289063 254.523438 130.851563 254.289063 Z M 130.328125 258.996094 C 130.328125 260.410156 129.882813 260.914063 129.132813 260.914063 C 128.164063 260.914063 127.707031 259.921875 127.707031 258.539063 C 127.707031 257.566406 128.308594 257.210938 128.957031 257.210938 C 129.882813 257.210938 130.328125 257.992188 130.328125 258.996094" />
  <path d="M 1600.507813 309.684375 L 1600.507813 272.535937" transform="matrix(.1 0 0 -.1 0 277.07)" fill="none" stroke-width="7.97" stroke="#000" stroke-miterlimit="10" />
  <path d="M 162.296875 259.496094 C 162.296875 258.605469 161.898438 258.070313 160.589844 257.277344 L 160.589844 257.242188 C 161.628906 256.675781 162.03125 256.304688 162.03125 255.492188 C 162.03125 254.609375 161.183594 253.953125 160.078125 253.953125 C 158.851563 253.953125 157.957031 254.585938 157.957031 255.601563 C 157.957031 256.363281 158.203125 256.820313 159.34375 257.609375 L 159.34375 257.644531 C 158.304688 258.335938 157.8125 258.695313 157.8125 259.585938 C 157.8125 260.722656 158.75 261.304688 160.042969 261.304688 C 161.371094 261.304688 162.296875 260.667969 162.296875 259.496094 Z M 161.203125 255.46875 C 161.203125 256.183594 160.980469 256.617188 160.246094 257.0625 C 159.253906 256.460938 158.828125 256.0625 158.828125 255.402344 C 158.828125 254.722656 159.296875 254.320313 160.054688 254.320313 C 160.769531 254.320313 161.203125 254.734375 161.203125 255.46875 Z M 159.675781 257.824219 C 161.027344 258.695313 161.359375 259.105469 161.359375 259.820313 C 161.359375 260.578125 160.78125 260.957031 160.089844 260.957031 C 159.242188 260.957031 158.683594 260.5 158.683594 259.496094 C 158.683594 258.726563 159.039063 258.335938 159.675781 257.824219" />
  <path d="M 1911.679688 309.684375 L 1911.679688 272.535937" transform="matrix(.1 0 0 -.1 0 277.07)" fill="none" stroke-width="7.97" stroke="#000" stroke-miterlimit="10" />
  <path d="M190.351563 261.171875L190.351563 260.859375C189.328125 260.859375 188.914063 260.65625 188.914063 260.109375L188.914063 254.042969 188.589844 254.042969 186.425781 254.65625 186.425781 255.023438C186.773438 254.910156 187.339844 254.84375 187.5625 254.84375 187.84375 254.84375 187.929688 255 187.929688 255.390625L187.929688 260.109375C187.929688 260.667969 187.539063 260.859375 186.492188 260.859375L186.492188 261.171875 190.351563 261.171875M196.421875 257.632813C196.421875 255.335938 195.417969 254.007813 193.976563 254.007813 192.359375 254.007813 191.503906 255.480469 191.503906 257.601563 191.503906 259.574219 192.160156 261.292969 193.957031 261.292969 195.707031 261.292969 196.421875 259.542969 196.421875 257.632813zM195.339844 257.699219C195.339844 259.84375 194.839844 260.890625 193.957031 260.890625 193.0625 260.890625 192.570313 259.820313 192.570313 257.65625 192.570313 255.445313 193.0625 254.386719 193.945313 254.386719 194.859375 254.386719 195.339844 255.4375 195.339844 257.699219" />
  <path d="M 355.78125 291.090625 L 1911.679688 1847.028125" transform="matrix(.1 0 0 -.1 0 277.07)" fill="none" stroke-width="7.97" stroke="#000" stroke-dasharray="29.8883,29.8883" stroke-miterlimit="10" />
  <path d="M69.246094 216.839844C69.246094 215.433594 68.105469 214.289063 66.695313 214.289063 65.285156 214.289063 64.144531 215.433594 64.144531 216.839844 64.144531 218.25 65.285156 219.390625 66.695313 219.390625 68.105469 219.390625 69.246094 218.25 69.246094 216.839844zM100.363281 185.722656C100.363281 184.3125 99.222656 183.171875 97.8125 183.171875 96.40625 183.171875 95.261719 184.3125 95.261719 185.722656 95.261719 187.132813 96.40625 188.273438 97.8125 188.273438 99.222656 188.273438 100.363281 187.132813 100.363281 185.722656zM131.484375 154.605469C131.484375 153.195313 130.339844 152.054688 128.933594 152.054688 127.523438 152.054688 126.382813 153.195313 126.382813 154.605469 126.382813 156.015625 127.523438 157.15625 128.933594 157.15625 130.339844 157.15625 131.484375 156.015625 131.484375 154.605469zM162.601563 123.488281C162.601563 122.078125 161.460938 120.9375 160.050781 120.9375 158.640625 120.9375 157.5 122.078125 157.5 123.488281 157.5 124.894531 158.640625 126.039063 160.050781 126.039063 161.460938 126.039063 162.601563 124.894531 162.601563 123.488281zM162.601563 123.488281" />
  <path d="M666.953125 291.090625L666.953125 726.754687M355.78125 602.301562L791.445313 602.301562" transform="matrix(.1 0 0 -.1 0 277.07)" fill="none" stroke-width="7.97" stroke="#e14b3b" stroke-dasharray="29.8883,29.8883" stroke-miterlimit="10" />
</svg>